# Blender v2.79 (sub 0) OBJ File: ''
# www.blender.org
mtllib pointy.mtl
o Cube
v 1.023028 -0.307742 -0.337067
v 1.000000 -1.284509 1.000000
v -0.808800 -1.257076 0.889943
v -0.934276 -0.728232 -1.036569
v 0.434944 0.803157 -1.145661
v 0.996572 0.353292 0.874083
v -0.846872 0.239044 0.283773
v -0.826637 0.536283 -1.027622
v -1.025616 0.882532 0.413485
v 0.038477 2.028327 0.038477
v 0.025582 0.013913 0.108171
v 0.045895 0.625042 0.495262
v -0.167624 -0.525410 1.000000
v 0.910360 0.856516 -0.058345
vn -0.0200 -0.8312 0.5556
vn 0.2363 0.7137 -0.6593
vn 0.9888 0.0852 -0.1223
vn -0.0645 0.2248 0.9723
vn -0.9986 0.0341 0.0411
vn 0.2266 -0.2693 -0.9360
vn -0.1365 0.2133 0.9674
vn -0.7489 0.6134 -0.2508
vn -0.9647 -0.2534 -0.0723
vn -0.4648 -0.7111 -0.5275
vn 0.7475 -0.6265 -0.2207
vn -0.4421 0.3719 0.8162
vn 0.7503 -0.6251 -0.2155
vn -0.4622 -0.7109 -0.5301
vn 0.7892 0.5679 0.2335
usemtl Material
s off
f 1//1 11//1 4//1
f 5//2 8//2 10//2 14//2
f 1//3 5//3 14//3 6//3 2//3
f 2//4 6//4 12//4 13//4
f 3//5 7//5 8//5 4//5
f 5//6 1//6 4//6 8//6
f 6//7 10//7 9//7 7//7 12//7
f 9//8 10//8 8//8
f 8//9 7//9 9//9
f 2//10 11//10 1//10
f 4//11 11//11 3//11
f 13//12 12//12 7//12 3//12
f 3//13 11//13 13//13
f 11//14 2//14 13//14
f 14//15 10//15 6//15
